{"asset":{"version":"2.0","generator":"babylon.js glTF exporter for 3dsmax 2021 v20201123.8"},"scene":0,"scenes":[{"nodes":[0,1,2,3,4,5,6,7,8,9,10,11,12,13]}],"nodes":[{"mesh":0,"translation":[0.0126775587,4.554293,-0.0115082748],"name":"Cylinder001"},{"mesh":1,"name":"Floor"},{"mesh":2,"translation":[-31.1312943,4.554293,14.96267],"name":"Cylinder002"},{"mesh":3,"translation":[-28.3009148,4.554293,-19.92668],"name":"Cylinder003"},{"mesh":4,"translation":[-7.44430876,4.554293,-33.6351166],"name":"Cylinder004"},{"mesh":5,"translation":[-16.8885918,4.554293,30.2681541],"name":"Cylinder005"},{"mesh":6,"translation":[-16.9265079,0.0,31.1833153],"name":"SpawnPoint_Exhibition"},{"mesh":7,"translation":[-32.7194023,0.0,14.3357639],"name":"SpawnPoint_Meeting Room"},{"mesh":8,"translation":[-28.9538116,0.0,-21.4868069],"name":"SpawnPoint_VIP Room"},{"mesh":9,"translation":[-6.76583052,0.0,-35.63292],"name":"SpawnPoint_Breakout Room"},{"mesh":10,"translation":[-59.2816963,4.554293,-5.86320353],"scale":[1.86107492,1.86107492,1.86107492],"name":"Cylinder006"},{"mesh":11,"translation":[-60.7021446,0.0,-6.54202],"name":"SpawnPoint_Planteray"},{"mesh":12,"translation":[-0.8973809,0.0,-0.0515527353],"name":"SpawnPoint_Networking"},{"name":"Default light"}],"meshes":[{"primitives":[{"attributes":{"POSITION":1,"NORMAL":2,"TEXCOORD_0":3},"indices":0}],"name":"Cylinder001"},{"primitives":[{"attributes":{"POSITION":5,"NORMAL":6,"TEXCOORD_0":7},"indices":4}],"name":"Floor"},{"primitives":[{"attributes":{"POSITION":9,"NORMAL":10,"TEXCOORD_0":11},"indices":8}],"name":"Cylinder002"},{"primitives":[{"attributes":{"POSITION":13,"NORMAL":14,"TEXCOORD_0":15},"indices":12}],"name":"Cylinder003"},{"primitives":[{"attributes":{"POSITION":17,"NORMAL":18,"TEXCOORD_0":19},"indices":16}],"name":"Cylinder004"},{"primitives":[{"attributes":{"POSITION":21,"NORMAL":22,"TEXCOORD_0":23},"indices":20}],"name":"Cylinder005"},{"primitives":[{"attributes":{"POSITION":25,"NORMAL":26,"TEXCOORD_0":27},"indices":24}],"name":"SpawnPoint_Exhibition"},{"primitives":[{"attributes":{"POSITION":29,"NORMAL":30,"TEXCOORD_0":31},"indices":28}],"name":"SpawnPoint_Meeting Room"},{"primitives":[{"attributes":{"POSITION":33,"NORMAL":34,"TEXCOORD_0":35},"indices":32}],"name":"SpawnPoint_VIP Room"},{"primitives":[{"attributes":{"POSITION":37,"NORMAL":38,"TEXCOORD_0":39},"indices":36}],"name":"SpawnPoint_Breakout Room"},{"primitives":[{"attributes":{"POSITION":41,"NORMAL":42,"TEXCOORD_0":43},"indices":40}],"name":"Cylinder006"},{"primitives":[{"attributes":{"POSITION":45,"NORMAL":46,"TEXCOORD_0":47},"indices":44}],"name":"SpawnPoint_Planteray"},{"primitives":[{"attributes":{"POSITION":49,"NORMAL":50,"TEXCOORD_0":51},"indices":48}],"name":"SpawnPoint_Networking"}],"accessors":[{"bufferView":0,"componentType":5123,"count":1920,"type":"SCALAR","name":"accessorIndices"},{"bufferView":1,"componentType":5126,"count":1920,"max":[20.0,3.00000024,21.8847713],"min":[-22.8074036,0.0,-24.62081],"type":"VEC3","name":"accessorPositions"},{"bufferView":1,"byteOffset":23040,"componentType":5126,"count":1920,"type":"VEC3","name":"accessorNormals"},{"bufferView":2,"componentType":5126,"count":1920,"type":"VEC2","name":"accessorUVs"},{"bufferView":0,"byteOffset":3840,"componentType":5123,"count":6,"type":"SCALAR","name":"accessorIndices"},{"bufferView":1,"byteOffset":46080,"componentType":5126,"count":6,"max":[100.000008,0.0,100.000008],"min":[-100.000008,0.0,-100.000008],"type":"VEC3","name":"accessorPositions"},{"bufferView":1,"byteOffset":46152,"componentType":5126,"count":6,"type":"VEC3","name":"accessorNormals"},{"bufferView":2,"byteOffset":15360,"componentType":5126,"count":6,"type":"VEC2","name":"accessorUVs"},{"bufferView":0,"byteOffset":3852,"componentType":5123,"count":1080,"type":"SCALAR","name":"accessorIndices"},{"bufferView":1,"byteOffset":46224,"componentType":5126,"count":1080,"max":[10.0,2.912005,9.993909],"min":[-9.975641,0.0,-9.993909],"type":"VEC3","name":"accessorPositions"},{"bufferView":1,"byteOffset":59184,"componentType":5126,"count":1080,"type":"VEC3","name":"accessorNormals"},{"bufferView":2,"byteOffset":15408,"componentType":5126,"count":1080,"type":"VEC2","name":"accessorUVs"},{"bufferView":0,"byteOffset":6012,"componentType":5123,"count":1080,"type":"SCALAR","name":"accessorIndices"},{"bufferView":1,"byteOffset":72144,"componentType":5126,"count":1080,"max":[10.0,2.912005,9.993909],"min":[-9.975641,0.0,-9.993909],"type":"VEC3","name":"accessorPositions"},{"bufferView":1,"byteOffset":85104,"componentType":5126,"count":1080,"type":"VEC3","name":"accessorNormals"},{"bufferView":2,"byteOffset":24048,"componentType":5126,"count":1080,"type":"VEC2","name":"accessorUVs"},{"bufferView":0,"byteOffset":8172,"componentType":5123,"count":1080,"type":"SCALAR","name":"accessorIndices"},{"bufferView":1,"byteOffset":98064,"componentType":5126,"count":1080,"max":[10.0,2.912005,9.993909],"min":[-9.975641,0.0,-9.993909],"type":"VEC3","name":"accessorPositions"},{"bufferView":1,"byteOffset":111024,"componentType":5126,"count":1080,"type":"VEC3","name":"accessorNormals"},{"bufferView":2,"byteOffset":32688,"componentType":5126,"count":1080,"type":"VEC2","name":"accessorUVs"},{"bufferView":0,"byteOffset":10332,"componentType":5123,"count":1080,"type":"SCALAR","name":"accessorIndices"},{"bufferView":1,"byteOffset":123984,"componentType":5126,"count":1080,"max":[10.0,2.912005,9.993909],"min":[-9.975641,0.0,-9.993909],"type":"VEC3","name":"accessorPositions"},{"bufferView":1,"byteOffset":136944,"componentType":5126,"count":1080,"type":"VEC3","name":"accessorNormals"},{"bufferView":2,"byteOffset":41328,"componentType":5126,"count":1080,"type":"VEC2","name":"accessorUVs"},{"bufferView":0,"byteOffset":12492,"componentType":5123,"count":24,"type":"SCALAR","name":"accessorIndices"},{"bufferView":1,"byteOffset":149904,"componentType":5126,"count":24,"max":[2.239837,2.239837,2.239837],"min":[-2.239837,-2.239837,-2.239837],"type":"VEC3","name":"accessorPositions"},{"bufferView":1,"byteOffset":150192,"componentType":5126,"count":24,"type":"VEC3","name":"accessorNormals"},{"bufferView":2,"byteOffset":49968,"componentType":5126,"count":24,"type":"VEC2","name":"accessorUVs"},{"bufferView":0,"byteOffset":12540,"componentType":5123,"count":24,"type":"SCALAR","name":"accessorIndices"},{"bufferView":1,"byteOffset":150480,"componentType":5126,"count":24,"max":[2.239837,2.239837,2.239837],"min":[-2.239837,-2.239837,-2.239837],"type":"VEC3","name":"accessorPositions"},{"bufferView":1,"byteOffset":150768,"componentType":5126,"count":24,"type":"VEC3","name":"accessorNormals"},{"bufferView":2,"byteOffset":50160,"componentType":5126,"count":24,"type":"VEC2","name":"accessorUVs"},{"bufferView":0,"byteOffset":12588,"componentType":5123,"count":24,"type":"SCALAR","name":"accessorIndices"},{"bufferView":1,"byteOffset":151056,"componentType":5126,"count":24,"max":[2.239837,2.239837,2.239837],"min":[-2.239837,-2.239837,-2.239837],"type":"VEC3","name":"accessorPositions"},{"bufferView":1,"byteOffset":151344,"componentType":5126,"count":24,"type":"VEC3","name":"accessorNormals"},{"bufferView":2,"byteOffset":50352,"componentType":5126,"count":24,"type":"VEC2","name":"accessorUVs"},{"bufferView":0,"byteOffset":12636,"componentType":5123,"count":24,"type":"SCALAR","name":"accessorIndices"},{"bufferView":1,"byteOffset":151632,"componentType":5126,"count":24,"max":[2.239837,2.239837,2.239837],"min":[-2.239837,-2.239837,-2.239837],"type":"VEC3","name":"accessorPositions"},{"bufferView":1,"byteOffset":151920,"componentType":5126,"count":24,"type":"VEC3","name":"accessorNormals"},{"bufferView":2,"byteOffset":50544,"componentType":5126,"count":24,"type":"VEC2","name":"accessorUVs"},{"bufferView":0,"byteOffset":12684,"componentType":5123,"count":1080,"type":"SCALAR","name":"accessorIndices"},{"bufferView":1,"byteOffset":152208,"componentType":5126,"count":1080,"max":[10.0,2.912005,9.993909],"min":[-9.975641,0.0,-9.993909],"type":"VEC3","name":"accessorPositions"},{"bufferView":1,"byteOffset":165168,"componentType":5126,"count":1080,"type":"VEC3","name":"accessorNormals"},{"bufferView":2,"byteOffset":50736,"componentType":5126,"count":1080,"type":"VEC2","name":"accessorUVs"},{"bufferView":0,"byteOffset":14844,"componentType":5123,"count":24,"type":"SCALAR","name":"accessorIndices"},{"bufferView":1,"byteOffset":178128,"componentType":5126,"count":24,"max":[2.239837,2.239837,2.239837],"min":[-2.239837,-2.239837,-2.239837],"type":"VEC3","name":"accessorPositions"},{"bufferView":1,"byteOffset":178416,"componentType":5126,"count":24,"type":"VEC3","name":"accessorNormals"},{"bufferView":2,"byteOffset":59376,"componentType":5126,"count":24,"type":"VEC2","name":"accessorUVs"},{"bufferView":0,"byteOffset":14892,"componentType":5123,"count":24,"type":"SCALAR","name":"accessorIndices"},{"bufferView":1,"byteOffset":178704,"componentType":5126,"count":24,"max":[2.239837,2.239837,2.239837],"min":[-2.239837,-2.239837,-2.239837],"type":"VEC3","name":"accessorPositions"},{"bufferView":1,"byteOffset":178992,"componentType":5126,"count":24,"type":"VEC3","name":"accessorNormals"},{"bufferView":2,"byteOffset":59568,"componentType":5126,"count":24,"type":"VEC2","name":"accessorUVs"}],"bufferViews":[{"buffer":0,"byteLength":14940,"name":"bufferViewScalar"},{"buffer":0,"byteOffset":14940,"byteLength":179280,"byteStride":12,"name":"bufferViewFloatVec3"},{"buffer":0,"byteOffset":194220,"byteLength":59760,"byteStride":8,"name":"bufferViewFloatVec2"}],"buffers":[{"uri":"TestCity.bin","byteLength":253980}]}